<?xml version="1.0" encoding="UTF-8"?>
<svg id="Layer_2" data-name="Layer 2" xmlns="http://www.w3.org/2000/svg" viewBox="0 0 582.57 97.12">
  <defs>
    <style>
      .cls-1 {
        opacity: .24;
      }

      .cls-2 {
        fill: #efea4b;
      }

      .cls-3 {
        fill: #010101;
      }
    </style>
  </defs>
  <g id="Layer_1-2" data-name="Layer 1">
    <g>
      <path class="cls-2" d="M582.57,14.51c0-7.45-6.04-13.49-13.49-13.49h-7.22c-1.68,0-3.29.32-4.78.89-1.49-.56-3.09-.89-4.78-.89h-7.22c-7.45,0-13.49,6.04-13.49,13.49v7.15c-5.04-2.44-10.99-3.77-17.62-3.77-12.25,0-21.61,4.04-27.93,10.08-6.12-6.37-14.84-10.08-25.14-10.08-5.61,0-10.58,1.09-14.88,2.96-2.04-1.23-4.42-1.94-6.98-1.94h-6.51c-4.48,0-8.45,2.2-10.9,5.56-6.51-4.2-14.52-6.58-23.47-6.58-5.52,0-10.67.92-15.34,2.61-1.13-3.06-2.73-5.89-4.82-8.41-4.59-5.52-13.64-12.09-30.74-12.09-28.54,0-41.63,15.96-44.17,29.63-.63,3.41-1.37,11.04,2.57,18.34-1.8.74-3.39,1.87-4.71,3.28v-18.86c0-1.1-.13-2.18-.38-3.2.25-1.03.38-2.1.38-3.2v-11.49c0-7.45-6.04-13.49-13.49-13.49h-7.22c-7.27,0-13.18,5.76-13.46,12.96-2.28-4.2-6.73-7.06-11.85-7.06h-7.32c-6.94,0-12.65,5.25-13.39,12h-6.18c-.31-.26-.73-.43-1.25-.43h-33.58c-.53,0-.94.17-1.25.43-.02,0-.03,0-.05,0h-7.22c-2.84,0-5.47.88-7.64,2.38-4.22-2.19-9.12-3.4-14.52-3.4-4.47,0-8.65.81-12.41,2.32-1.75-.83-3.71-1.3-5.78-1.3h-6.51c-4.1,0-7.77,1.84-10.25,4.73-5.49-3.7-12.33-5.75-20.15-5.75-2.76,0-5.43.27-7.96.78v-4.16c0-7.45-6.04-13.49-13.49-13.49h-7.22c-3.15,0-6.04,1.09-8.34,2.9-4.96-2.3-11.45-3.91-19.92-3.91C21.97,0,8.88,15.96,6.34,29.63c-.63,3.41-1.37,11.04,2.57,18.34-4.14,1.7-7.29,5.4-8.14,10.02l-.11.61c-1.85,9.95.28,19.22,6.01,26.1,4.71,5.67,14.16,12.42,32.44,12.42,12.06,0,21.35-2.93,28.24-7.36,2.38,3.81,6.6,6.35,11.43,6.35h6.19c.14,0,.27.02.41.02h53.04c.14,0,.28-.01.41-.02h6.23c.25,0,.49-.02.74-.04h51.23c2.85.67,5.86,1.05,9.03,1.05,5.65,0,10.65-1.09,14.97-2.96,2.04,1.24,4.43,1.95,6.98,1.95h6.51c4.4,0,8.29-2.11,10.75-5.37,4.89,3.46,11.22,5.37,18.73,5.37h10.88c.92,0,1.82-.09,2.7-.27.87.18,1.77.27,2.7.27h7.22c7.45,0,13.49-6.04,13.49-13.49v-1.4c.73,1.22,1.54,2.39,2.46,3.49,4.71,5.67,14.16,12.42,32.44,12.42,15.23,0,26.04-4.67,33.17-11.13,7.23,6.99,17.38,11.13,29.14,11.13,8.94,0,16.95-2.38,23.47-6.58,2.45,3.37,6.41,5.56,10.9,5.56h7.22c.34,0,.68-.03,1.02-.05h33.03c.34.03.67.05,1.02.05h7.22c2.82,0,5.44-.87,7.61-2.35,4.44,2.16,9.71,3.37,15.58,3.37s11.76-1.09,16.75-3.12c2.09,1.33,4.58,2.11,7.24,2.11h6.51c1.65,0,3.22-.31,4.68-.85,1.46.54,3.03.85,4.68.85h7.22c1.68,0,3.29-.32,4.78-.89,1.49.56,3.09.89,4.78.89h7.22c7.45,0,13.49-6.04,13.49-13.49v-50.22c0-1.1-.13-2.18-.38-3.2.25-1.03.38-2.1.38-3.2v-11.49Z"/>
      <g class="cls-1">
        <path class="cls-3" d="M13.91,61.07l.11-.61h7.32l-.25,1.32c-1.81,9.76,3.3,15.04,19.26,15.04,13.62,0,20.52-3.76,21.96-11.49,1.42-7.62-2.65-10.37-12.23-12.4l-13.92-2.75c-10.68-2.13-18.66-6.81-16.56-18.09,1.72-9.25,11.39-18.6,30.9-18.6s25.86,10.17,23.56,22.57l-.11.61h-7.32l.23-1.22c1.83-9.86-3.29-15.15-18.13-15.15-13.52,0-20.34,3.86-21.72,11.28-1.44,7.73,2.6,10.06,12.27,12.2l13.8,2.85c11.76,2.34,18.63,7.52,16.66,18.1-1.81,9.76-11.75,18.91-30.66,18.91-20.03,0-27.6-9.56-25.19-22.57Z"/>
        <path class="cls-3" d="M310.68,61.07l.11-.61h7.32l-.25,1.32c-1.81,9.76,3.3,15.04,19.26,15.04,13.62,0,20.52-3.76,21.96-11.49s-2.65-10.37-12.23-12.4l-13.92-2.75c-10.68-2.13-18.66-6.81-16.56-18.09,1.72-9.25,11.39-18.6,30.9-18.6s25.86,10.17,23.56,22.57l-.11.61h-7.32l.23-1.22c1.83-9.86-3.29-15.15-18.13-15.15-13.52,0-20.34,3.86-21.72,11.28s2.6,10.06,12.27,12.2l13.8,2.85c11.76,2.34,18.63,7.52,16.66,18.1-1.81,9.76-11.75,18.91-30.66,18.91-20.03,0-27.6-9.56-25.19-22.57Z"/>
        <path class="cls-3" d="M78.76,82.62V14.51h7.22v33.24h.51c1.63-8.44,8.13-16.37,20.94-16.37,14.03,0,21.04,9.35,21.04,22.06v29.18h-7.22v-28.26c0-11.49-5.39-16.37-16.67-16.37-13.42,0-18.6,8.54-18.6,21.04v23.58h-7.22Z"/>
        <path class="cls-3" d="M137.83,82.62v-50.22h6.51v13.72h.51c1.53-8.03,7.22-14.74,17.69-14.74,11.59,0,16.67,8.54,16.67,17.89v4.98h-7.22v-3.86c0-8.54-3.56-12.71-12.3-12.71-10.17,0-14.64,6.4-14.64,17.69v27.24h-7.22Z"/>
        <path class="cls-3" d="M184.69,61.78v-29.38h7.22v28.26c0,10.47,5.08,16.47,16.67,16.47,12.3,0,18.71-7.42,18.71-20.33v-24.4h7.22v50.22h-6.51v-15.65h-.51c-1.73,8.54-8.95,16.67-21.45,16.67-14.33,0-21.35-9.96-21.35-21.86Z"/>
        <path class="cls-3" d="M263.99,82.62c-9.96,0-16.37-4.17-16.37-15.96v-28.06h-8.95v-6.2h8.95v-12h7.32v12h19.92v6.2h-19.92v28.46c0,7.01,3.46,8.95,10.78,8.95h9.15v6.61h-10.88Z"/>
        <path class="cls-3" d="M280.26,25.99v-11.49h7.22v11.49h-7.22ZM280.26,82.62v-50.22h7.22v50.22h-7.22Z"/>
        <path class="cls-3" d="M370.94,57.51c0-15.25,10.88-26.13,27.24-26.13s27.35,10.88,27.35,26.13-10.88,26.13-27.35,26.13-27.24-10.88-27.24-26.13ZM418.41,57.51c0-12.1-6.4-19.62-20.23-19.62s-20.13,7.52-20.13,19.62,6.3,19.62,20.13,19.62,20.23-7.42,20.23-19.62Z"/>
        <path class="cls-3" d="M432.55,82.62v-50.22h6.51v15.76h.51c1.73-8.54,8.84-16.77,21.35-16.77,14.13,0,21.15,10.06,21.15,21.96v29.28h-7.22v-28.26c0-10.37-4.98-16.37-16.47-16.37-12.2,0-18.6,7.42-18.6,20.33v24.3h-7.22Z"/>
        <path class="cls-3" d="M488.67,70.82c0-8.23,6.81-11.79,16.16-12.81l23.89-2.64v-3.86c0-9.76-4.27-13.62-15.25-13.62s-16.47,3.86-16.47,12.71v.41h-7.22v-.41c0-10.57,8.74-19.21,24.19-19.21s21.75,8.74,21.75,19.82v31.41h-6.51v-13.52h-.51c-2.95,9.25-11.79,14.54-23.48,14.54-9.86,0-16.57-4.68-16.57-12.81ZM506.86,78.04c12.2,0,21.86-5.39,21.86-17.48v-.41l-21.65,2.44c-7.52.71-11.18,2.54-11.18,7.73s3.36,7.73,10.98,7.73Z"/>
        <path class="cls-3" d="M545.09,82.62V14.51h7.22v68.11h-7.22Z"/>
        <path class="cls-3" d="M561.86,25.99v-11.49h7.22v11.49h-7.22ZM561.86,82.62v-50.22h7.22v50.22h-7.22Z"/>
      </g>
    </g>
  </g>
</svg>